HIERARCHY
ROOT Hips
{
	OFFSET 0.000000 88.474243 0.000000
	CHANNELS 6 Xposition Yposition Zposition Zrotation Yrotation Xrotation 
	JOINT Hips_Spine
	{
		OFFSET 0.000000 0.000000 0.000000
		CHANNELS 3 Zrotation Yrotation Xrotation
		JOINT Spine
		{
			OFFSET 0.005100 8.711998 -0.691000
			CHANNELS 3 Zrotation Yrotation Xrotation
			JOINT Spine1
			{
				OFFSET -0.009200 8.660301 -1.275000
				CHANNELS 3 Zrotation Yrotation Xrotation
				JOINT Spine2
				{
					OFFSET 0.006300 9.852501 -1.857000
					CHANNELS 3 Zrotation Yrotation Xrotation
					JOINT Spine2_Neck
					{
						OFFSET 0.000000 0.000000 0.000000
						CHANNELS 3 Zrotation Yrotation Xrotation
						JOINT Neck
						{
							OFFSET 0.016300 11.420799 -0.263300
							CHANNELS 3 Zrotation Yrotation Xrotation
							End Site #name: Head
							{
								OFFSET -0.019200 9.262405 2.362500
							}
						}
					}
					JOINT Spine2_LeftShoulder
					{
						OFFSET 0.000000 0.000000 0.000000
						CHANNELS 3 Zrotation Yrotation Xrotation
						JOINT LeftShoulder
						{
							OFFSET 5.616900 6.732201 -0.345700
							CHANNELS 3 Zrotation Yrotation Xrotation
							JOINT LeftArm
							{
								OFFSET 10.664888 -0.183372 -2.440700
								CHANNELS 3 Zrotation Yrotation Xrotation
								JOINT LeftForeArm
								{
									OFFSET 27.459126 0.000000 0.000000
									CHANNELS 3 Zrotation Yrotation Xrotation
									End Site #name: LeftHand
									{
										OFFSET 21.306858 0.000000 0.000000
									}
								}
							}
						}
					}
					JOINT Spine2_RightShoulder
					{
						OFFSET 0.000000 0.000000 0.000000
						CHANNELS 3 Zrotation Yrotation Xrotation
						JOINT RightShoulder
						{
							OFFSET -5.580300 6.737503 -0.344400
							CHANNELS 3 Zrotation Yrotation Xrotation
							JOINT RightArm
							{
								OFFSET -10.679335 -0.188484 -2.383900
								CHANNELS 3 Zrotation Yrotation Xrotation
								JOINT RightForeArm
								{
									OFFSET -27.503529 0.000000 0.000000
									CHANNELS 3 Zrotation Yrotation Xrotation
									End Site #name: RightHand
									{
										OFFSET -21.306808 0.000000 0.000000
									}
								}
							}
						}
					}
				}
			}
		}
	}
	JOINT Hips_LeftUpLeg
	{
		OFFSET 0.000000 0.000000 0.000000
		CHANNELS 3 Zrotation Yrotation Xrotation
		JOINT LeftUpLeg
		{
			OFFSET 6.857700 -6.739601 0.312100
			CHANNELS 3 Zrotation Yrotation Xrotation
			JOINT LeftLeg
			{
				OFFSET -0.367590 -34.731552 -4.572400
				CHANNELS 3 Zrotation Yrotation Xrotation
				End Site #name: LeftFoot
				{
					OFFSET 0.367590 -34.656704 -6.067400
				}
			}
		}
	}
	JOINT Hips_RightUpLeg
	{
		OFFSET 0.000000 0.000000 0.000000
		CHANNELS 3 Zrotation Yrotation Xrotation
		JOINT RightUpLeg
		{
			OFFSET -6.876100 -6.733299 0.301000
			CHANNELS 3 Zrotation Yrotation Xrotation
			JOINT RightLeg
			{
				OFFSET 0.347353 -34.795158 -4.515900
				CHANNELS 3 Zrotation Yrotation Xrotation
				End Site #name: RightFoot
				{
					OFFSET -0.347353 -34.589367 -6.070300
				}
			}
		}
	}
}
MOTION
Frames: 17
Frame Time: 0.041667
-8.363533 0.249658 31.734343 -1.745189 -19.629707 -2.311145 -0.000000 0.000000 0.000000 -1.033550 -1.728355 0.972097 2.001940 -2.351419 3.370596 0.000000 0.000000 0.000000 2.276991 -2.391827 3.464173 2.770143 -4.469632 9.208280 2.367970 -2.314776 2.795488 -2.779190 -6.053210 0.686262 -36.905938 30.695163 73.707959 -0.773980 -83.462018 8.574788 2.148290 -2.494315 3.464512 13.773137 7.192719 1.648722 44.025616 34.521842 9.416590 165.104249 36.517205 161.595969 -0.000000 -0.000000 0.000000 7.495195 9.577118 6.978935 -0.944535 -5.303770 22.372396 0.000000 -0.000000 -0.000000 7.360069 -6.436604 -25.839093 -3.655398 -5.956845 19.641550 
-9.119669 0.227206 33.066309 -1.832329 -19.897089 -2.303771 -0.000000 0.000000 0.000000 -1.046388 -1.622082 1.025610 2.225259 -2.251000 3.358584 0.000000 0.000000 0.000000 2.479105 -2.267167 3.421495 2.848569 -4.606203 9.220772 2.574167 -2.209955 2.824391 -2.901316 -5.794260 0.669807 -36.949401 31.230231 73.307569 -0.357145 -83.876293 8.755409 2.379261 -2.376262 3.408544 13.648266 6.985802 1.571666 44.318415 34.030550 10.999181 165.089872 37.273931 162.526161 -0.000000 -0.000000 0.000000 7.341003 8.874286 3.821470 -0.838904 -4.114700 30.126057 0.000000 -0.000000 -0.000000 7.438156 -6.813962 -25.276639 -4.080003 -6.444677 20.861832 
-9.821625 0.204114 34.363250 -1.818949 -20.213873 -2.284504 -0.000000 0.000000 0.000000 -1.051137 -1.463413 1.018071 2.433813 -2.093194 3.340754 0.000000 0.000000 0.000000 2.662515 -2.104247 3.376016 2.917317 -4.696865 9.275527 2.752301 -2.061086 2.859446 -3.009999 -5.592694 0.658912 -37.072365 31.705188 72.717805 0.153504 -84.295541 8.899143 2.587457 -2.198650 3.339973 13.525837 6.765975 1.499244 44.509121 33.606561 12.334534 165.121763 38.051754 163.347039 -0.000000 -0.000000 0.000000 7.050559 8.399730 0.097726 0.052048 -1.825187 36.531006 0.000000 -0.000000 -0.000000 7.486618 -7.030912 -24.614102 -4.148388 -6.274480 21.837101 
-10.486450 0.178117 35.623839 -1.707674 -20.649518 -2.282577 -0.000000 0.000000 0.000000 -1.055194 -1.282811 1.017532 2.618970 -1.885382 3.325327 0.000000 0.000000 0.000000 2.817417 -1.904418 3.329008 2.924249 -4.763475 9.281341 2.901235 -1.866826 2.896651 -3.088116 -5.442087 0.652662 -37.232177 32.087663 72.024092 0.713633 -84.805445 9.056364 2.760394 -1.982923 3.237631 13.428437 6.478515 1.437456 44.638844 33.294697 13.476488 165.175370 38.677005 164.038544 0.000000 -0.000000 0.000000 6.318159 7.950361 -3.870197 1.662832 0.698499 41.974429 0.000000 -0.000000 -0.000000 7.467255 -7.201944 -23.877296 -3.852966 -5.571810 22.673650 
-11.114877 0.152018 36.862226 -1.520376 -21.085160 -2.308905 -0.000000 0.000000 0.000000 -1.011862 -1.088057 0.993977 2.766467 -1.657296 3.315185 0.000000 0.000000 0.000000 2.934898 -1.688750 3.283568 2.840082 -4.828091 9.167235 2.997244 -1.647481 2.915730 -3.153868 -5.339159 0.660000 -37.460963 32.372974 71.181643 1.342725 -85.340703 9.184476 2.892333 -1.742985 3.143991 13.335180 6.208706 1.391257 44.694361 33.074581 14.269819 165.280985 39.225896 164.495497 0.000000 -0.000000 0.000000 5.750094 7.606257 -8.574989 4.632852 3.593726 46.659980 0.000000 -0.000000 -0.000000 7.394238 -7.325774 -23.131531 -3.264916 -4.600973 23.486617 
-11.709991 0.130796 38.091740 -1.287953 -21.287380 -2.300420 -0.000000 0.000000 0.000000 -0.882312 -0.880166 0.968963 2.863804 -1.408697 3.316991 0.000000 0.000000 0.000000 3.006066 -1.455076 3.242608 2.718150 -4.844503 9.118574 3.038976 -1.401534 2.948825 -3.252692 -5.220120 0.670079 -37.747559 32.525929 70.207861 2.111749 -85.936342 9.226208 2.971481 -1.473259 3.077012 13.234299 5.978565 1.363524 44.686523 32.966037 14.750849 165.455364 39.684662 164.668929 0.000000 -0.000000 0.000000 4.800575 7.076042 -13.708102 7.703147 6.195635 50.715394 0.000000 -0.000000 -0.000000 7.268811 -7.400095 -22.408277 -2.179571 -3.050018 24.238763 
-12.282252 0.119707 39.315156 -1.033594 -21.564463 -2.304078 -0.000000 0.000000 0.000000 -0.687544 -0.680267 0.941031 2.904465 -1.129854 3.333837 0.000000 0.000000 0.000000 3.029121 -1.164401 3.260604 2.550395 -4.816502 9.121544 3.017920 -1.126707 2.992078 -3.400982 -5.072107 0.678134 -38.081066 32.585929 69.132879 3.179970 -86.536022 8.994313 2.988472 -1.164374 3.076172 13.113021 5.827117 1.364287 44.671220 32.984747 14.912403 165.678715 39.989006 164.595766 0.000000 -0.000000 0.000000 3.633285 6.187971 -18.368712 9.991179 8.019229 53.552840 0.000000 -0.000000 -0.000000 7.108792 -7.447495 -21.724234 -0.752193 -0.968695 25.001510 
-12.828189 0.121637 40.541971 -0.825359 -22.042244 -2.295100 -0.000000 0.000000 0.000000 -0.546626 -0.508810 0.950290 2.868194 -0.825762 3.356928 0.000000 0.000000 0.000000 2.980527 -0.864100 3.287471 2.295482 -4.736583 9.144934 2.925816 -0.822165 3.040181 -3.595835 -4.917677 0.688338 -38.438172 32.464582 67.983301 4.697173 -87.149678 8.322528 2.929524 -0.838009 3.093289 12.933244 5.802488 1.393652 44.656829 33.137195 14.835593 165.919250 40.181517 164.267661 0.000000 -0.000000 0.000000 2.269882 5.108398 -21.549230 11.043426 8.899483 54.308657 0.000000 -0.000000 -0.000000 6.913109 -7.504734 -21.057494 0.851110 1.325190 25.720247 
-13.341730 0.139462 41.780198 -0.630901 -22.714337 -2.240274 -0.000000 0.000000 0.000000 -0.413908 -0.320260 0.917635 2.744993 -0.427826 3.350956 0.000000 0.000000 0.000000 2.855053 -0.535248 3.299299 1.949588 -4.587861 9.103804 2.750573 -0.399738 3.106316 -3.831037 -4.772747 0.704955 -38.829764 32.163677 66.709022 6.852851 -87.708420 6.984767 2.777933 -0.438385 3.052156 12.690561 5.929966 1.451571 44.654043 33.394170 14.507760 166.190828 40.226659 163.759255 0.000000 -0.000000 -0.000000 0.792172 3.819804 -24.056575 10.597571 8.924192 52.873354 0.000000 -0.000000 0.000000 6.659568 -7.592378 -20.305953 2.554645 3.677052 26.304922 
-13.813464 0.174652 43.042185 -0.435257 -23.666152 -2.194439 -0.000000 0.000000 0.000000 -0.270436 -0.071148 0.895365 2.528996 0.123560 3.317784 0.000000 0.000000 0.000000 2.638866 -0.056285 3.227331 1.518001 -4.366323 9.079298 2.467837 0.193871 3.061753 -4.088584 -4.648174 0.723353 -39.263806 31.697674 65.224266 10.311658 -88.221718 4.289037 2.541380 0.109330 2.981368 12.352115 6.258225 1.549465 44.697788 33.725319 14.019165 166.505310 40.134583 163.089921 0.000000 -0.000000 -0.000000 -0.734556 2.311093 -26.299932 9.542115 8.817006 50.015498 0.000000 -0.000000 0.000000 6.333257 -7.743810 -19.430706 3.997187 5.947520 26.705504 
-14.233835 0.222053 44.344246 -0.248017 -24.661071 -2.173573 -0.000000 0.000000 0.000000 -0.162914 0.235563 0.882103 2.199702 0.674282 3.243550 0.000000 0.000000 0.000000 2.301917 0.486095 3.002504 0.976402 -4.072837 9.092493 2.113376 0.806919 2.905204 -4.387644 -4.510938 0.743279 -39.741923 31.072923 63.546638 16.201192 -88.755643 -0.951418 2.209240 0.659470 2.848770 11.923199 6.732729 1.660521 44.768388 34.135562 13.455663 166.855987 39.923200 162.353394 0.000000 -0.000000 -0.000000 -2.510354 0.717139 -28.005070 8.086657 8.388121 45.971181 0.000000 -0.000000 0.000000 5.942199 -7.883862 -18.452532 5.205847 7.977391 26.918257 
-14.600287 0.272850 45.701969 -0.073104 -25.581551 -2.151466 -0.000000 0.000000 0.000000 -0.145918 0.588944 0.951930 1.750599 1.138382 3.090449 0.000000 0.000000 0.000000 1.848058 1.043210 2.740529 0.367738 -3.756149 9.040676 1.669920 1.345114 2.622901 -4.729429 -4.351540 0.760230 -40.144937 30.400691 61.817581 33.891458 -89.376626 -18.106113 1.742499 1.201680 2.622194 11.420896 7.274986 1.747042 44.886354 34.540665 12.972384 167.229973 39.641051 161.606505 0.000000 -0.000000 -0.000000 -4.425803 -0.581925 -28.861178 5.998617 7.246462 40.379838 0.000000 -0.000000 0.000000 5.520248 -8.005531 -17.425355 6.257225 9.744001 26.974589 
-14.916866 0.320136 47.129596 0.112691 -26.240882 -2.080986 -0.000000 0.000000 0.000000 -0.185722 1.020382 1.130260 1.174822 1.634612 2.926341 0.000000 0.000000 0.000000 1.307854 1.616882 2.468394 -0.167579 -3.411304 8.865780 1.142536 1.864906 2.416671 -5.103179 -4.173966 0.774443 -40.412929 29.742725 60.179809 131.638353 -89.581123 -115.481761 1.178273 1.760888 2.391270 10.871613 7.975588 1.837294 45.084616 34.942210 12.641199 167.516176 39.344136 160.875148 0.000000 -0.000000 -0.000000 -5.908012 -1.157998 -29.525333 4.042621 5.185070 34.221913 0.000000 -0.000000 0.000000 5.046152 -8.126995 -16.521808 7.143043 11.206798 27.121018 
-15.192042 0.357475 48.650486 0.313238 -26.642688 -1.948533 -0.000000 0.000000 0.000000 -0.253357 1.378217 1.403815 0.574713 2.098126 2.751155 0.000000 0.000000 0.000000 0.671537 2.077113 2.184487 -0.727317 -2.986173 8.748378 0.492936 2.348476 2.254412 -5.507489 -3.992221 0.790648 -40.617734 29.033514 58.592988 166.771200 -88.947269 -150.428791 0.496906 2.243883 2.204958 10.254400 8.844385 1.929597 45.339328 35.319016 12.555470 167.601420 39.166304 160.142727 0.000000 -0.000000 -0.000000 -6.790723 -1.329431 -29.953400 1.800407 3.183560 25.796337 0.000000 -0.000000 0.000000 4.498543 -8.245329 -15.712166 8.169133 12.711820 27.441974 
-15.431572 0.376094 50.305935 0.534374 -26.750252 -1.756210 -0.000000 0.000000 0.000000 -0.358226 1.639074 1.497527 0.109146 2.512175 2.575303 0.000000 0.000000 0.000000 0.167796 2.517435 2.067093 -1.239189 -2.504207 8.717907 -0.054394 2.780510 2.173380 -5.900632 -3.808246 0.793677 -40.868165 28.315614 56.990766 174.361650 -88.303913 -158.028143 -0.055234 2.657816 2.115872 9.576264 9.697082 2.010737 45.563428 35.708572 12.538621 167.479171 39.112707 159.467661 0.000000 -0.000000 -0.000000 -7.282774 -1.010336 -29.851240 -0.072058 0.890071 15.854665 0.000000 -0.000000 0.000000 3.871946 -8.411575 -14.850625 9.433694 14.329979 27.740632 
-15.632899 0.376711 52.110645 0.787099 -26.519873 -1.511066 -0.000000 0.000000 0.000000 -0.356001 1.860826 1.514460 -0.231216 2.901356 2.423380 0.000000 0.000000 0.000000 -0.165242 2.923409 2.001630 -1.848944 -2.040435 8.580246 -0.425539 3.173637 2.122308 -6.288479 -3.605749 0.786088 -41.119384 27.616832 55.448325 177.849415 -87.664644 -161.722486 -0.407729 3.022467 2.082818 8.987661 10.272578 2.047003 45.764725 36.111535 12.805479 167.172622 39.176644 158.891403 0.000000 -0.000000 -0.000000 -7.272011 -0.699828 -29.413064 -1.432892 -1.581646 6.753601 -0.000000 -0.000000 0.000000 3.142252 -8.624569 -13.907056 11.046237 16.255126 28.141890 
-15.855850 0.351635 54.055163 1.133847 -26.046605 -1.231981 -0.000000 0.000000 0.000000 -0.382789 2.056321 1.501994 -0.456372 3.233273 2.265941 0.000000 0.000000 0.000000 -0.394106 3.269065 1.909170 -2.732619 -1.656355 8.181586 -0.651359 3.478260 2.097478 -6.647299 -3.392331 0.782766 -41.370487 26.933579 54.083391 179.784697 -86.978043 -164.032531 -0.651155 3.346638 2.048810 8.455250 10.722846 2.073944 46.005760 36.432095 13.266705 166.715558 39.363793 158.394598 -0.000000 -0.000000 -0.000000 -7.503350 0.436438 -27.891487 -2.104059 -3.868202 -0.789391 -0.000000 -0.000000 0.000000 2.335380 -8.699118 -12.730677 12.763076 18.381354 28.345064 
